<?xml version="1.0" encoding="utf-8"?>
<!-- Generator: Adobe Illustrator 19.0.0, SVG Export Plug-In . SVG Version: 6.00 Build 0)  -->
<svg version="1.1" id="Capa_1" xmlns="http://www.w3.org/2000/svg" xmlns:xlink="http://www.w3.org/1999/xlink" x="0px" y="0px"
	 viewBox="-295 96.5 368.5 368.5" style="enable-background:new -295 96.5 368.5 368.5;" xml:space="preserve">
<style type="text/css">
	.st0{fill:#EC008C;}
	.st1{fill:#333E48;}
	.st2{opacity:0.1;enable-background:new    ;}
	.st3{fill:#FFFFFF;}
	.st4{fill:#0D2732;}
</style>
<g>
	<path class="st0" d="M-139.3,219.5c0-5-4.1-9.1-9.1-9.1H-180c-5,0-9.1,4.1-9.1,9.1v9.8c0,5,4.1,9.1,9.1,9.1h31.6
		c5,0,9.1-4.1,9.1-9.1L-139.3,219.5L-139.3,219.5z"/>
	<path class="st1" d="M-12.3,239.9c0-8.8-7.2-16-16-16h-165.5c-8.8,0-16,7.2-16,16v98.9c0,8.8,7.2,16,16,16h165.5
		c8.8,0,16-7.2,16-16L-12.3,239.9L-12.3,239.9z"/>
	<path class="st0" d="M-209.8,322h14.7c3.8,0,6.8-3.1,6.8-6.8v-51.6c0-3.8-3.1-6.8-6.8-6.8h-14.7V322z"/>
	<rect x="-178.2" y="223.9" class="st0" width="17.1" height="130.8"/>
	<circle class="st2" cx="-102.4" cy="301" r="45"/>
	<circle class="st3" cx="-102.4" cy="289.3" r="45"/>
	<circle class="st4" cx="-102.4" cy="289.3" r="31.3"/>
	<g>
		<circle class="st3" cx="-96" cy="282.5" r="10"/>
		<path class="st3" d="M-56.4,253.5c0,2.5,2.1,4.6,4.6,4.6h23.3c2.5,0,4.6-2.1,4.6-4.6v-6.2c0-2.5-2.1-4.6-4.6-4.6h-23.3
			c-2.5,0-4.6,2.1-4.6,4.6V253.5z"/>
	</g>
	<path class="st4" d="M-28.3,220.7H-136v-1.2c0-6.8-5.6-12.4-12.4-12.4H-180c-6.8,0-12.4,5.6-12.4,12.4v1.2h-1.4
		c-10.6,0-19.2,8.6-19.2,19.2v98.9c0,10.6,8.6,19.2,19.2,19.2h165.5c10.6,0,19.2-8.6,19.2-19.2v-98.9
		C-9.1,229.3-17.7,220.7-28.3,220.7z M-185.9,219.5c0-3.2,2.6-5.9,5.9-5.9h31.6c3.2,0,5.9,2.6,5.9,5.9v1.2h-43.4V219.5z
		 M-206.5,259.9h11.5c2,0,3.6,1.6,3.6,3.6v51.6c0,2-1.6,3.6-3.6,3.6h-11.5V259.9z M-15.6,338.8c0,7-5.7,12.7-12.7,12.7h-165.5
		c-7,0-12.7-5.7-12.7-12.7v-13.5h11.5c5.6,0,10.1-4.5,10.1-10.1v-51.6c0-5.6-4.5-10.1-10.1-10.1h-11.5v-13.5c0-7,5.7-12.7,12.7-12.7
		h165.5c7,0,12.7,5.7,12.7,12.7L-15.6,338.8L-15.6,338.8z M-28.6,239.4h-23.3c-4.3,0-7.8,3.5-7.8,7.8v6.2c0,4.3,3.5,7.8,7.8,7.8
		h23.3c4.3,0,7.8-3.5,7.8-7.8v-6.2C-20.7,242.9-24.2,239.4-28.6,239.4z M-27.3,253.5c0,0.7-0.6,1.3-1.3,1.3h-23.3
		c-0.7,0-1.3-0.6-1.3-1.3v-6.2c0-0.7,0.6-1.3,1.3-1.3h23.3c0.7,0,1.3,0.6,1.3,1.3V253.5z M-102.4,241.1c-26.6,0-48.2,21.6-48.2,48.2
		s21.6,48.2,48.2,48.2s48.2-21.6,48.2-48.2S-75.8,241.1-102.4,241.1z M-102.4,331.1c-23,0-41.7-18.7-41.7-41.7
		c0-23,18.7-41.7,41.7-41.7s41.7,18.7,41.7,41.7C-60.7,312.3-79.4,331.1-102.4,331.1z"/>
</g>
</svg>
