<?xml version="1.0" encoding="utf-8"?>
<!-- Generator: Adobe Illustrator 19.0.0, SVG Export Plug-In . SVG Version: 6.00 Build 0)  -->
<svg version="1.1" id="Layer_1" xmlns="http://www.w3.org/2000/svg" xmlns:xlink="http://www.w3.org/1999/xlink" x="0px" y="0px"
	 viewBox="0 0 212 252" style="enable-background:new 0 0 212 252;" xml:space="preserve">
<style type="text/css">
	.st0{fill:#EC008C;}
	.st1{fill:#EC008C;}
</style>
<path id="XMLID_8_" class="st0" d="M124.8,70.6c0-9.9-8-17.9-17.9-17.9V61c5.3,0,9.6,4.3,9.6,9.6c0,5.3-4.3,9.6-9.6,9.6v8.3V105
	c0,0,8.4-13.5,11.6-18.1C125.6,76.8,124.8,70.6,124.8,70.6z"/>
<path id="XMLID_7_" class="st1" d="M106.9,61v-8.3c-9.9,0-17.9,8-17.9,17.9c0,0-0.8,6.2,6.3,16.3c3.2,4.5,11.6,18.1,11.6,18.1V88.5
	v-8.3c-5.3,0-9.6-4.3-9.6-9.6C97.2,65.3,101.5,61,106.9,61z"/>
</svg>
